# xmcd
#
# Track frame offsets:
# 150
# 13764
# 28732
# 42134
# 58921
# 73646
# 86886
# 103633
# 119492
# 138428
# 150939
# 167930
# 182790
# 198244
# 212456
# 226975
# 241133
# 256857
# 270386
# 285813
#
# Disc length: 4051 seconds
#
#
# Revision: 0
# Processed by: cddbd v1.5.2PL0 Copyright (c) Steve Scherf et al.
# Submitted via: FreeRIP 2.951 
#
DISCID=0f0fd114
DTITLE=Adalberto and Adriano - As 20 Mais de Adalberto and Adriano
DYEAR=1900
DGENRE=Country
TTITLE0=Sô Solteiro
TTITLE1=Sua Mulher Me Ama
TTITLE2=Noite de Núpcias
TTITLE3=É Impossível Esquecer
TTITLE4=Quem Mandou Acreditar
TTITLE5=Eu Sou Gamado Nela
TTITLE6=Sertanejo Com Madonna
TTITLE7=Eu Não Contava Com Isso
TTITLE8=Do Fundo do Meu Coração
TTITLE9=Você Só Me Fez Feliz
TTITLE10=Preciso Ir
TTITLE11=Deixa a Chuva Derramar
TTITLE12=Sai de Mim Paixão
TTITLE13=Não Acredito
TTITLE14=Ripa na Chulipa
TTITLE15=Atitude
TTITLE16=Separação
TTITLE17=Capim Mexeu, Pau na Preá
TTITLE18=Silhueta
TTITLE19=Ternura
EXTD=
EXTT0=
EXTT1=
EXTT2=
EXTT3=
EXTT4=
EXTT5=
EXTT6=
EXTT7=
EXTT8=
EXTT9=
EXTT10=
EXTT11=
EXTT12=
EXTT13=
EXTT14=
EXTT15=
EXTT16=
EXTT17=
EXTT18=
EXTT19=
PLAYORDER=
